<svg xmlns="http://www.w3.org/2000/svg" xmlns:xlink="http://www.w3.org/1999/xlink" viewBox="0 0 375 812">
  <defs>
    <style>
      .cls-1, .cls-14, .cls-15, .cls-17, .cls-19, .cls-2, .cls-20, .cls-26, .cls-28, .cls-29, .cls-31, .cls-34, .cls-36, .cls-6, .cls-9 {
        fill: #fff;
      }

      .cls-1 {
        clip-rule: evenodd;
      }

      .cls-3 {
        clip-path: url(#clip-hamburger-menu);
      }

      .cls-4 {
        fill: #2962ff;
      }

      .cls-18, .cls-22, .cls-25, .cls-32, .cls-5 {
        fill: none;
      }

      .cls-6 {
        font-size: 20px;
        font-family: MontserratAlternates-SemiBold, Montserrat Alternates;
        font-weight: 600;
      }

      .cls-17, .cls-19, .cls-20, .cls-6 {
        letter-spacing: -0.024em;
      }

      .cls-27, .cls-7 {
        fill: #0039cb;
      }

      .cls-8 {
        clip-path: url(#clip-path);
      }

      .cls-9 {
        stroke: rgba(0,0,0,0.35);
      }

      .cls-30, .cls-33, .cls-9 {
        stroke-width: 2px;
      }

      .cls-10 {
        clip-path: url(#clip-path-2);
      }

      .cls-11 {
        clip-path: url(#clip-path-3);
      }

      .cls-12 {
        clip-path: url(#clip-path-4);
      }

      .cls-13 {
        clip-path: url(#clip-path-5);
      }

      .cls-14 {
        font-size: 14px;
        font-family: Helvetica;
        letter-spacing: 0em;
      }

      .cls-15 {
        fill-rule: evenodd;
      }

      .cls-16 {
        fill: url(#linear-gradient);
      }

      .cls-17, .cls-20, .cls-34 {
        font-size: 16px;
      }

      .cls-17 {
        font-family: MontserratAlternates-Medium, Montserrat Alternates;
        font-weight: 500;
      }

      .cls-18, .cls-21, .cls-22, .cls-23, .cls-24, .cls-25, .cls-27, .cls-28, .cls-29, .cls-30, .cls-31, .cls-32, .cls-33, .cls-34 {
        stroke: #fff;
      }

      .cls-18 {
        stroke-width: 0.5px;
      }

      .cls-19, .cls-29 {
        font-size: 12px;
      }

      .cls-19, .cls-20, .cls-31, .cls-34 {
        font-family: MontserratAlternates-Light, Montserrat Alternates;
        font-weight: 300;
      }

      .cls-21 {
        fill: #26ad30;
      }

      .cls-21, .cls-22 {
        stroke-width: 1.5px;
      }

      .cls-24 {
        fill: red;
      }

      .cls-26 {
        stroke: #2962ff;
        stroke-width: 4px;
      }

      .cls-27, .cls-28, .cls-31 {
        font-size: 19px;
      }

      .cls-27, .cls-28, .cls-29 {
        font-family: MontserratAlternates-Bold, Montserrat Alternates;
        font-weight: 700;
        letter-spacing: 0.1em;
      }

      .cls-30 {
        fill: url(#linear-gradient-5);
      }

      .cls-31, .cls-34 {
        letter-spacing: 0.2em;
      }

      .cls-32 {
        stroke-width: 3px;
      }

      .cls-33 {
        fill: url(#linear-gradient-6);
      }

      .cls-35, .cls-36 {
        stroke: none;
      }

      .cls-37 {
        filter: url(#Rectangle_170-3);
      }

      .cls-38 {
        filter: url(#Rectangle_170-2);
      }

      .cls-39 {
        filter: url(#Rectangle_170);
      }

      .cls-40 {
        filter: url(#Path_3-4);
      }

      .cls-41 {
        filter: url(#Path_3-3);
      }

      .cls-42 {
        filter: url(#Path_3-2);
      }

      .cls-43 {
        filter: url(#Path_3);
      }
    </style>
    <clipPath id="clip-path">
      <path id="Shape" class="cls-1" d="M338.667-26.667h16.667A2.667,2.667,0,0,1,358-24v6h0a2.667,2.667,0,0,1-2.667,2.667H338.667A2.667,2.667,0,0,1,336-18v-6h0A2.667,2.667,0,0,1,338.667-26.667Z" transform="translate(0 44)"/>
    </clipPath>
    <clipPath id="clip-path-2">
      <path id="Shape-2" data-name="Shape" class="cls-2" d="M359-23v4a2.17,2.17,0,0,0,1.328-2A2.17,2.17,0,0,0,359-23" transform="translate(0 44)"/>
    </clipPath>
    <clipPath id="clip-path-3">
      <path id="Shape-3" data-name="Shape" class="cls-2" d="M339.333-24.667h15.333A1.333,1.333,0,0,1,356-23.333v4.667h0a1.333,1.333,0,0,1-1.333,1.333H339.333A1.333,1.333,0,0,1,338-18.667v-4.667h0A1.333,1.333,0,0,1,339.333-24.667Z" transform="translate(0 44)"/>
    </clipPath>
    <clipPath id="clip-path-4">
      <path id="Shape-4" data-name="Shape" class="cls-2" d="M323.33-24.392a8.64,8.64,0,0,1,5.953,2.378.308.308,0,0,0,.433,0l1.156-1.167a.322.322,0,0,0,.093-.229.322.322,0,0,0-.1-.227,10.9,10.9,0,0,0-15.08,0,.322.322,0,0,0-.1.227.322.322,0,0,0,.093.229l1.156,1.167a.308.308,0,0,0,.433,0,8.641,8.641,0,0,1,5.954-2.378Zm0,3.8a4.907,4.907,0,0,1,3.294,1.27.31.31,0,0,0,.433-.006l1.155-1.167a.322.322,0,0,0,.094-.23.322.322,0,0,0-.1-.229,7.159,7.159,0,0,0-9.752,0,.322.322,0,0,0-.1.229.322.322,0,0,0,.094.23l1.154,1.167a.31.31,0,0,0,.433.006,4.907,4.907,0,0,1,3.292-1.27Zm2.219,2.784a.314.314,0,0,0,.094-.231.314.314,0,0,0-.1-.226,3.422,3.422,0,0,0-4.419,0,.314.314,0,0,0-.1.226.314.314,0,0,0,.094.231l2,2.016a.311.311,0,0,0,.222.093.312.312,0,0,0,.222-.093Z" transform="translate(0 44)"/>
    </clipPath>
    <clipPath id="clip-path-5">
      <path id="Shape-5" data-name="Shape" class="cls-2" d="M294.667-19.667h1a1,1,0,0,1,1,1v2a1,1,0,0,1-1,1h-1a1,1,0,0,1-1-1v-2a1,1,0,0,1,1-1Zm4.667-2h1a1,1,0,0,1,1,1v4a1,1,0,0,1-1,1h-1a1,1,0,0,1-1-1v-4A1,1,0,0,1,299.333-21.667ZM304-24h1a1,1,0,0,1,1,1v6.333a1,1,0,0,1-1,1h-1a1,1,0,0,1-1-1V-23A1,1,0,0,1,304-24Zm4.667-2.333h1a1,1,0,0,1,1,1v8.667a1,1,0,0,1-1,1h-1a1,1,0,0,1-1-1v-8.667a1,1,0,0,1,1-1Z" transform="translate(0 44)"/>
    </clipPath>
    <linearGradient id="linear-gradient" x1="1" y1="0.5" x2="0" y2="0.5" gradientUnits="objectBoundingBox">
      <stop offset="0" stop-color="#8e54e9"/>
      <stop offset="1" stop-color="#4776e6"/>
    </linearGradient>
    <filter id="Path_3" x="13.5" y="97.5" width="350" height="115" filterUnits="userSpaceOnUse">
      <feOffset dx="1" dy="1" input="SourceAlpha"/>
      <feGaussianBlur stdDeviation="2.5" result="blur"/>
      <feFlood flood-color="#303f9f"/>
      <feComposite operator="in" in2="blur"/>
      <feComposite in="SourceGraphic"/>
    </filter>
    <filter id="Path_3-2" x="13.5" y="463.5" width="350" height="115" filterUnits="userSpaceOnUse">
      <feOffset dx="1" dy="1" input="SourceAlpha"/>
      <feGaussianBlur stdDeviation="2.5" result="blur-2"/>
      <feFlood flood-color="#303f9f"/>
      <feComposite operator="in" in2="blur-2"/>
      <feComposite in="SourceGraphic"/>
    </filter>
    <filter id="Path_3-3" x="13.5" y="341.5" width="350" height="115" filterUnits="userSpaceOnUse">
      <feOffset dx="1" dy="1" input="SourceAlpha"/>
      <feGaussianBlur stdDeviation="2.5" result="blur-3"/>
      <feFlood flood-color="#303f9f"/>
      <feComposite operator="in" in2="blur-3"/>
      <feComposite in="SourceGraphic"/>
    </filter>
    <filter id="Path_3-4" x="13.5" y="219.5" width="350" height="115" filterUnits="userSpaceOnUse">
      <feOffset dx="1" dy="1" input="SourceAlpha"/>
      <feGaussianBlur stdDeviation="2.5" result="blur-4"/>
      <feFlood flood-color="#303f9f"/>
      <feComposite operator="in" in2="blur-4"/>
      <feComposite in="SourceGraphic"/>
    </filter>
    <filter id="Rectangle_170" x="-1" y="354" width="282.123" height="84" filterUnits="userSpaceOnUse">
      <feOffset dy="3" input="SourceAlpha"/>
      <feGaussianBlur stdDeviation="3" result="blur-5"/>
      <feFlood flood-color="#0039cb"/>
      <feComposite operator="in" in2="blur-5"/>
      <feComposite in="SourceGraphic"/>
    </filter>
    <linearGradient id="linear-gradient-5" x1="0.48" y1="0.5" x2="0" y2="0.5" gradientUnits="objectBoundingBox">
      <stop offset="0" stop-color="#8e54e9"/>
      <stop offset="1" stop-color="#472a75"/>
    </linearGradient>
    <filter id="Rectangle_170-2" x="-1" y="260.75" width="282.123" height="68" filterUnits="userSpaceOnUse">
      <feOffset dy="3" input="SourceAlpha"/>
      <feGaussianBlur stdDeviation="3" result="blur-6"/>
      <feFlood flood-color="#0039cb"/>
      <feComposite operator="in" in2="blur-6"/>
      <feComposite in="SourceGraphic"/>
    </filter>
    <linearGradient id="linear-gradient-6" x1="0.475" xlink:href="#linear-gradient-5"/>
    <filter id="Rectangle_170-3" x="-2.493" y="188.75" width="283.615" height="68" filterUnits="userSpaceOnUse">
      <feOffset dy="3" input="SourceAlpha"/>
      <feGaussianBlur stdDeviation="3" result="blur-7"/>
      <feFlood flood-color="#0039cb"/>
      <feComposite operator="in" in2="blur-7"/>
      <feComposite in="SourceGraphic"/>
    </filter>
    <clipPath id="clip-hamburger-menu">
      <rect width="375" height="812"/>
    </clipPath>
  </defs>
  <g id="hamburger-menu" class="cls-3">
    <rect class="cls-2" width="375" height="812"/>
    <g id="iOS_App_iPhone_4.7_Display_Modal_Sheet" data-name="iOS App (iPhone 4.7&quot; Display) – Modal Sheet">
      <g id="Body">
        <rect id="Background" class="cls-2" width="375" height="812"/>
      </g>
      <g id="Light_-_Navigation_Bar_-_Modal_Sheet" data-name="Light - Navigation Bar - Modal Sheet" transform="translate(-790 -271)">
        <g id="Background-2" data-name="Background" transform="translate(-23 182)">
          <rect id="Background-3" data-name="Background" class="cls-4" width="375" height="88" transform="translate(813 89)"/>
        </g>
        <g id="Right_Accessory" data-name="Right Accessory" transform="translate(-23 183)">
          <rect id="boundary" class="cls-5" width="180" height="44" transform="translate(1008 132)"/>
        </g>
        <text id="Title" class="cls-6" transform="translate(978 344)"><tspan x="-120.56" y="0">Mes cours de la journée</tspan></text>
        <g id="Left_Accessory" data-name="Left Accessory" transform="translate(-23 183)">
          <rect id="boundary-2" data-name="boundary" class="cls-5" width="180" height="44" transform="translate(813 133)"/>
        </g>
      </g>
      <g id="Status_Bar_Light" data-name="Status Bar Light" transform="translate(-13 -80)">
        <g id="Bars_Status_Bar_Light_Status_Bar" data-name="Bars/Status Bar/Light Status Bar">
          <path id="Background-4" data-name="Background" class="cls-7" d="M0-44H375V0H0Z" transform="translate(13 124)"/>
          <g id="Battery" transform="translate(13 80)">
            <g id="Border" class="cls-8">
              <path id="Fill" class="cls-9" d="M2.667,0H19.333A2.667,2.667,0,0,1,22,2.667v6h0a2.667,2.667,0,0,1-2.667,2.667H2.667A2.667,2.667,0,0,1,0,8.667v-6H0A2.667,2.667,0,0,1,2.667,0Z" transform="translate(336 17.333)"/>
            </g>
            <g id="Cap" class="cls-10">
              <path id="Fill-2" data-name="Fill" class="cls-2" d="M354-28h11.328v14H354Z" transform="translate(0 44)"/>
            </g>
            <g id="Capacity" class="cls-11">
              <path id="Fill-3" data-name="Fill" class="cls-2" d="M333-29.667h28v17.333H333Z" transform="translate(0 44)"/>
            </g>
          </g>
          <g id="Wifi" transform="translate(13 80)">
            <g id="Wifi-2" data-name="Wifi" class="cls-12">
              <path id="Fill-4" data-name="Fill" class="cls-2" d="M310.694-31.669h25.272V-10.7H310.694Z" transform="translate(0 44)"/>
            </g>
          </g>
          <g id="Cellular_Connection" data-name="Cellular Connection" transform="translate(13 80)">
            <g id="Cellular_Connection-2" data-name="Cellular Connection" class="cls-13">
              <path id="Fill-5" data-name="Fill" class="cls-2" d="M288.667-31.333h27v20.667h-27Z" transform="translate(0 44)"/>
            </g>
          </g>
          <g id="Bars___Time_Black" data-name="Bars/_/Time Black" transform="translate(5 78)">
            <path id="Background-5" data-name="Background" class="cls-5" d="M21-19H75V-35H21Z" transform="translate(8 50)"/>
            <text id="_Time" data-name="↳ Time" class="cls-14" transform="translate(29 17)"><tspan x="13.37" y="11">9:41</tspan></text>
          </g>
        </g>
      </g>
    </g>
    <g id="ic_menu" transform="translate(-735 -26)">
      <rect id="rectangle" class="cls-5" width="30" height="30" transform="translate(745 78)"/>
      <path id="path" class="cls-15" d="M3,22H27V19.333H3V22Zm0-6.667H27V12.667H3v2.667ZM3,6V8.667H27V6Z" transform="translate(745 78)"/>
    </g>
    <g id="Group_23" data-name="Group 23" transform="translate(-126 88)">
      <g class="cls-43" transform="matrix(1, 0, 0, 1, 126, -88)">
        <g id="Path_3-5" data-name="Path 3" class="cls-16" transform="translate(20 104)">
          <path class="cls-35" d="M 302.1568603515625 99.25 L 32.84312438964844 99.25 C 28.50479125976562 99.25 24.29700088500977 98.45016479492188 20.33662414550781 96.87274932861328 C 16.51370811462402 95.35012054443359 13.08095836639404 93.17082977294922 10.13370800018311 90.39541625976562 C 7.189624786376953 87.62303924560547 4.878708362579346 84.39579010009766 3.265125036239624 80.80336761474609 C 1.596208333969116 77.08770751953125 0.75 73.1407470703125 0.75 69.07216644287109 L 0.75 30.92782974243164 C 0.75 26.85924530029297 1.596208333969116 22.91228866577148 3.265125036239624 19.19662094116211 C 4.878708362579346 15.60420417785645 7.189624786376953 12.37695407867432 10.13370800018311 9.604579925537109 C 13.08095836639404 6.829163074493408 16.51370811462402 4.649871349334717 20.33662414550781 3.127246141433716 C 24.29700088500977 1.549829483032227 28.50479125976562 0.7499961853027344 32.84312438964844 0.7499961853027344 L 302.1568603515625 0.7499961853027344 C 306.4952087402344 0.7499961853027344 310.7030029296875 1.549829483032227 314.6633605957031 3.127246141433716 C 318.4862365722656 4.649871349334717 321.9190063476562 6.829163074493408 324.8663024902344 9.604579925537109 C 327.8103637695312 12.37695407867432 330.1212768554688 15.60420417785645 331.73486328125 19.19662094116211 C 333.4037780761719 22.91228866577148 334.25 26.85924530029297 334.25 30.92782974243164 L 334.25 69.07216644287109 C 334.25 73.1407470703125 333.4037780761719 77.08770751953125 331.73486328125 80.80336761474609 C 330.1212768554688 84.39579010009766 327.8103637695312 87.62303924560547 324.8663024902344 90.39541625976562 C 321.9190063476562 93.17082977294922 318.4862365722656 95.35012054443359 314.6633605957031 96.87274932861328 C 310.7030029296875 98.45016479492188 306.4952087402344 99.25 302.1568603515625 99.25 Z"/>
          <path class="cls-36" d="M 302.1568603515625 98.5 C 306.3997192382812 98.5 310.5141296386719 97.71808624267578 314.3858032226562 96.17599487304688 C 318.1206970214844 94.68840789794922 321.4738159179688 92.55986022949219 324.3521423339844 89.84940338134766 C 327.2240600585938 87.14499664306641 329.477783203125 83.99808502197266 331.0507202148438 80.49608612060547 C 332.6759643554688 76.87767791748047 333.5 73.03413391113281 333.5 69.07218170166016 L 333.5 30.92781448364258 C 333.5 26.96586036682129 332.6759643554688 23.122314453125 331.0507202148438 19.50390434265137 C 329.477783203125 16.00190544128418 327.2240600585938 12.85499572753906 324.3521423339844 10.15058708190918 C 321.4738159179688 7.440132617950439 318.1206970214844 5.311586856842041 314.3858032226562 3.823996067047119 C 310.5141296386719 2.281905174255371 306.3997192382812 1.499996185302734 302.1568603515625 1.499996185302734 L 32.84313583374023 1.499996185302734 C 28.60027313232422 1.499996185302734 24.48581886291504 2.281905174255371 20.6141357421875 3.823996067047119 C 16.8792724609375 5.311586856842041 13.52613639831543 7.440132617950439 10.64786338806152 10.15058708190918 C 7.775954723358154 12.85499572753906 5.52222728729248 16.00190544128418 3.949272632598877 19.50390434265137 C 2.324045419692993 23.122314453125 1.5 26.96586036682129 1.5 30.92781448364258 L 1.5 69.07218170166016 C 1.5 73.03413391113281 2.324045419692993 76.87767791748047 3.949272632598877 80.49608612060547 C 5.52222728729248 83.99808502197266 7.775954723358154 87.14499664306641 10.64786338806152 89.84940338134766 C 13.52613639831543 92.55986022949219 16.8792724609375 94.68840789794922 20.6141357421875 96.17599487304688 C 24.48581886291504 97.71808624267578 28.60027313232422 98.5 32.84313583374023 98.5 L 302.1568603515625 98.5 M 302.1568603515625 100 L 32.84313583374023 100 C 14.70436382293701 100 0 86.15312957763672 0 69.07218170166016 L 0 30.92781448364258 C 0 13.8468599319458 14.70436382293701 -3.814697265625e-06 32.84313583374023 -3.814697265625e-06 L 302.1568603515625 -3.814697265625e-06 C 320.2955932617188 -3.814697265625e-06 335 13.8468599319458 335 30.92781448364258 L 335 69.07218170166016 C 335 86.15312957763672 320.2955932617188 100 302.1568603515625 100 Z"/>
        </g>
      </g>
      <text id="Analyse_Financière" data-name="Analyse Financière" class="cls-17" transform="translate(175.658 43.371)"><tspan x="0" y="0">Analyse Financière</tspan></text>
      <path id="Path_1" data-name="Path 1" class="cls-18" d="M-.5,7H247.841" transform="translate(177.154 44.567)"/>
      <text id="Salle_205" data-name="Salle 205" class="cls-19" transform="translate(357.989 70.206)"><tspan x="0" y="0">Salle 205</tspan></text>
      <path id="Path_2" data-name="Path 2" class="cls-18" d="M-.5,2.5H247.841" transform="translate(177.154 75.871)"/>
      <text id="RAZGANI-AOUNI_Hasnae" data-name="RAZGANI-AOUNI Hasnae" class="cls-20" transform="translate(176.654 94.918)"><tspan x="0" y="0">RAZGANI-AOUNI Hasnae</tspan></text>
      <text id="_16_04_2018" data-name="16/04/2018" class="cls-19" transform="translate(176.654 70.175)"><tspan x="0" y="0">16/04/2018</tspan></text>
      <text id="_08h30_-_10h30" data-name="08h30 - 10h30" class="cls-19" transform="translate(257.263 70.175)"><tspan x="0" y="0">08h30 - 10h30</tspan></text>
      <text id="_" data-name="|" class="cls-19" transform="translate(247.547 69)"><tspan x="0" y="0">|</tspan></text>
      <text id="_2" data-name="|" class="cls-19" transform="translate(348.047 69)"><tspan x="0" y="0">|</tspan></text>
      <g id="Symbol_2_4" data-name="Symbol 2 – 4" transform="translate(236.078 -607)">
        <g id="Group_7" data-name="Group 7">
          <g id="Ellipse_1" data-name="Ellipse 1" class="cls-21" transform="translate(202 658)">
            <circle class="cls-35" cx="15" cy="15" r="15"/>
            <circle class="cls-5" cx="15" cy="15" r="14.25"/>
          </g>
        </g>
        <g id="check" transform="translate(-1.24 -2.895)">
          <line id="Line_1" data-name="Line 1" class="cls-22" x2="4.918" y2="7.423" transform="translate(211.5 675.014)"/>
          <line id="Line_2" data-name="Line 2" class="cls-22" y1="14.096" x2="8.795" transform="translate(216.418 667.5)"/>
        </g>
      </g>
    </g>
    <g id="Group_24" data-name="Group 24" transform="translate(-126 454)">
      <g class="cls-42" transform="matrix(1, 0, 0, 1, 126, -454)">
        <g id="Path_3-6" data-name="Path 3" class="cls-16" transform="translate(20 470)">
          <path class="cls-35" d="M 302.1568603515625 99.25 L 32.84312438964844 99.25 C 28.50479125976562 99.25 24.29700088500977 98.45016479492188 20.33662414550781 96.87274932861328 C 16.51370811462402 95.35012054443359 13.08095836639404 93.17082977294922 10.13370800018311 90.39541625976562 C 7.189624786376953 87.62303924560547 4.878708362579346 84.39579010009766 3.265125036239624 80.80336761474609 C 1.596208333969116 77.08770751953125 0.75 73.1407470703125 0.75 69.07216644287109 L 0.75 30.92782974243164 C 0.75 26.85924530029297 1.596208333969116 22.91228866577148 3.265125036239624 19.19662094116211 C 4.878708362579346 15.60420417785645 7.189624786376953 12.37695407867432 10.13370800018311 9.604579925537109 C 13.08095836639404 6.829163074493408 16.51370811462402 4.649871349334717 20.33662414550781 3.127246141433716 C 24.29700088500977 1.549829483032227 28.50479125976562 0.7499961853027344 32.84312438964844 0.7499961853027344 L 302.1568603515625 0.7499961853027344 C 306.4952087402344 0.7499961853027344 310.7030029296875 1.549829483032227 314.6633605957031 3.127246141433716 C 318.4862365722656 4.649871349334717 321.9190063476562 6.829163074493408 324.8663024902344 9.604579925537109 C 327.8103637695312 12.37695407867432 330.1212768554688 15.60420417785645 331.73486328125 19.19662094116211 C 333.4037780761719 22.91228866577148 334.25 26.85924530029297 334.25 30.92782974243164 L 334.25 69.07216644287109 C 334.25 73.1407470703125 333.4037780761719 77.08770751953125 331.73486328125 80.80336761474609 C 330.1212768554688 84.39579010009766 327.8103637695312 87.62303924560547 324.8663024902344 90.39541625976562 C 321.9190063476562 93.17082977294922 318.4862365722656 95.35012054443359 314.6633605957031 96.87274932861328 C 310.7030029296875 98.45016479492188 306.4952087402344 99.25 302.1568603515625 99.25 Z"/>
          <path class="cls-36" d="M 302.1568603515625 98.5 C 306.3997192382812 98.5 310.5141296386719 97.71808624267578 314.3858032226562 96.17599487304688 C 318.1206970214844 94.68840789794922 321.4738159179688 92.55986022949219 324.3521423339844 89.84940338134766 C 327.2240600585938 87.14499664306641 329.477783203125 83.99808502197266 331.0507202148438 80.49608612060547 C 332.6759643554688 76.87767791748047 333.5 73.03413391113281 333.5 69.07218170166016 L 333.5 30.92781448364258 C 333.5 26.96586036682129 332.6759643554688 23.122314453125 331.0507202148438 19.50390434265137 C 329.477783203125 16.00190544128418 327.2240600585938 12.85499572753906 324.3521423339844 10.15058708190918 C 321.4738159179688 7.440132617950439 318.1206970214844 5.311586856842041 314.3858032226562 3.823996067047119 C 310.5141296386719 2.281905174255371 306.3997192382812 1.499996185302734 302.1568603515625 1.499996185302734 L 32.84313583374023 1.499996185302734 C 28.60027313232422 1.499996185302734 24.48581886291504 2.281905174255371 20.6141357421875 3.823996067047119 C 16.8792724609375 5.311586856842041 13.52613639831543 7.440132617950439 10.64786338806152 10.15058708190918 C 7.775954723358154 12.85499572753906 5.52222728729248 16.00190544128418 3.949272632598877 19.50390434265137 C 2.324045419692993 23.122314453125 1.5 26.96586036682129 1.5 30.92781448364258 L 1.5 69.07218170166016 C 1.5 73.03413391113281 2.324045419692993 76.87767791748047 3.949272632598877 80.49608612060547 C 5.52222728729248 83.99808502197266 7.775954723358154 87.14499664306641 10.64786338806152 89.84940338134766 C 13.52613639831543 92.55986022949219 16.8792724609375 94.68840789794922 20.6141357421875 96.17599487304688 C 24.48581886291504 97.71808624267578 28.60027313232422 98.5 32.84313583374023 98.5 L 302.1568603515625 98.5 M 302.1568603515625 100 L 32.84313583374023 100 C 14.70436382293701 100 0 86.15312957763672 0 69.07218170166016 L 0 30.92781448364258 C 0 13.8468599319458 14.70436382293701 -3.814697265625e-06 32.84313583374023 -3.814697265625e-06 L 302.1568603515625 -3.814697265625e-06 C 320.2955932617188 -3.814697265625e-06 335 13.8468599319458 335 30.92781448364258 L 335 69.07218170166016 C 335 86.15312957763672 320.2955932617188 100 302.1568603515625 100 Z"/>
        </g>
      </g>
      <text id="Reseaux_informatiques" data-name="Reseaux informatiques" class="cls-17" transform="translate(177.748 43.371)"><tspan x="0" y="0">Reseaux informatiques</tspan></text>
      <path id="Path_1-2" data-name="Path 1" class="cls-18" d="M-.5,7H247.841" transform="translate(177.154 44.567)"/>
      <text id="Salle_106" data-name="Salle 106" class="cls-19" transform="translate(357.989 70.206)"><tspan x="0" y="0">Salle 106</tspan></text>
      <path id="Path_2-2" data-name="Path 2" class="cls-18" d="M-.5,2.5H247.841" transform="translate(177.154 75.871)"/>
      <text id="BOUTABIA_Mohammed" data-name="BOUTABIA Mohammed" class="cls-20" transform="translate(176.654 94.918)"><tspan x="0" y="0">BOUTABIA Mohammed</tspan></text>
      <text id="_16_04_2018-2" data-name="16/04/2018" class="cls-19" transform="translate(176.654 70.175)"><tspan x="0" y="0">16/04/2018</tspan></text>
      <text id="_16h00_-_18h00" data-name="16h00 - 18h00" class="cls-19" transform="translate(257.263 70.175)"><tspan x="0" y="0">16h00 - 18h00</tspan></text>
      <text id="_3" data-name="|" class="cls-19" transform="translate(247.547 69)"><tspan x="0" y="0">|</tspan></text>
      <text id="_4" data-name="|" class="cls-19" transform="translate(348.047 69)"><tspan x="0" y="0">|</tspan></text>
      <g id="Symbol_4_2" data-name="Symbol 4 – 2" transform="translate(134.172 -454)">
        <g id="Ellipse_3" data-name="Ellipse 3" class="cls-23" transform="translate(306 505)">
          <circle class="cls-35" cx="15" cy="15" r="15"/>
          <circle class="cls-5" cx="15" cy="15" r="14.5"/>
        </g>
        <text id="_5" data-name="?" class="cls-17" transform="translate(317 526)"><tspan x="0" y="0">?</tspan></text>
      </g>
    </g>
    <g id="Group_25" data-name="Group 25" transform="translate(-126 332)">
      <g class="cls-41" transform="matrix(1, 0, 0, 1, 126, -332)">
        <g id="Path_3-7" data-name="Path 3" class="cls-16" transform="translate(20 348)">
          <path class="cls-35" d="M 302.1568603515625 99.25 L 32.84312438964844 99.25 C 28.50479125976562 99.25 24.29700088500977 98.45016479492188 20.33662414550781 96.87274932861328 C 16.51370811462402 95.35012054443359 13.08095836639404 93.17082977294922 10.13370800018311 90.39541625976562 C 7.189624786376953 87.62303924560547 4.878708362579346 84.39579010009766 3.265125036239624 80.80336761474609 C 1.596208333969116 77.08770751953125 0.75 73.1407470703125 0.75 69.07216644287109 L 0.75 30.92782974243164 C 0.75 26.85924530029297 1.596208333969116 22.91228866577148 3.265125036239624 19.19662094116211 C 4.878708362579346 15.60420417785645 7.189624786376953 12.37695407867432 10.13370800018311 9.604579925537109 C 13.08095836639404 6.829163074493408 16.51370811462402 4.649871349334717 20.33662414550781 3.127246141433716 C 24.29700088500977 1.549829483032227 28.50479125976562 0.7499961853027344 32.84312438964844 0.7499961853027344 L 302.1568603515625 0.7499961853027344 C 306.4952087402344 0.7499961853027344 310.7030029296875 1.549829483032227 314.6633605957031 3.127246141433716 C 318.4862365722656 4.649871349334717 321.9190063476562 6.829163074493408 324.8663024902344 9.604579925537109 C 327.8103637695312 12.37695407867432 330.1212768554688 15.60420417785645 331.73486328125 19.19662094116211 C 333.4037780761719 22.91228866577148 334.25 26.85924530029297 334.25 30.92782974243164 L 334.25 69.07216644287109 C 334.25 73.1407470703125 333.4037780761719 77.08770751953125 331.73486328125 80.80336761474609 C 330.1212768554688 84.39579010009766 327.8103637695312 87.62303924560547 324.8663024902344 90.39541625976562 C 321.9190063476562 93.17082977294922 318.4862365722656 95.35012054443359 314.6633605957031 96.87274932861328 C 310.7030029296875 98.45016479492188 306.4952087402344 99.25 302.1568603515625 99.25 Z"/>
          <path class="cls-36" d="M 302.1568603515625 98.5 C 306.3997192382812 98.5 310.5141296386719 97.71808624267578 314.3858032226562 96.17599487304688 C 318.1206970214844 94.68840789794922 321.4738159179688 92.55986022949219 324.3521423339844 89.84940338134766 C 327.2240600585938 87.14499664306641 329.477783203125 83.99808502197266 331.0507202148438 80.49608612060547 C 332.6759643554688 76.87767791748047 333.5 73.03413391113281 333.5 69.07218170166016 L 333.5 30.92781448364258 C 333.5 26.96586036682129 332.6759643554688 23.122314453125 331.0507202148438 19.50390434265137 C 329.477783203125 16.00190544128418 327.2240600585938 12.85499572753906 324.3521423339844 10.15058708190918 C 321.4738159179688 7.440132617950439 318.1206970214844 5.311586856842041 314.3858032226562 3.823996067047119 C 310.5141296386719 2.281905174255371 306.3997192382812 1.499996185302734 302.1568603515625 1.499996185302734 L 32.84313583374023 1.499996185302734 C 28.60027313232422 1.499996185302734 24.48581886291504 2.281905174255371 20.6141357421875 3.823996067047119 C 16.8792724609375 5.311586856842041 13.52613639831543 7.440132617950439 10.64786338806152 10.15058708190918 C 7.775954723358154 12.85499572753906 5.52222728729248 16.00190544128418 3.949272632598877 19.50390434265137 C 2.324045419692993 23.122314453125 1.5 26.96586036682129 1.5 30.92781448364258 L 1.5 69.07218170166016 C 1.5 73.03413391113281 2.324045419692993 76.87767791748047 3.949272632598877 80.49608612060547 C 5.52222728729248 83.99808502197266 7.775954723358154 87.14499664306641 10.64786338806152 89.84940338134766 C 13.52613639831543 92.55986022949219 16.8792724609375 94.68840789794922 20.6141357421875 96.17599487304688 C 24.48581886291504 97.71808624267578 28.60027313232422 98.5 32.84313583374023 98.5 L 302.1568603515625 98.5 M 302.1568603515625 100 L 32.84313583374023 100 C 14.70436382293701 100 0 86.15312957763672 0 69.07218170166016 L 0 30.92781448364258 C 0 13.8468599319458 14.70436382293701 -3.814697265625e-06 32.84313583374023 -3.814697265625e-06 L 302.1568603515625 -3.814697265625e-06 C 320.2955932617188 -3.814697265625e-06 335 13.8468599319458 335 30.92781448364258 L 335 69.07218170166016 C 335 86.15312957763672 320.2955932617188 100 302.1568603515625 100 Z"/>
        </g>
      </g>
      <text id="Anglais" class="cls-17" transform="translate(177.752 43.371)"><tspan x="0" y="0">Anglais</tspan></text>
      <path id="Path_1-3" data-name="Path 1" class="cls-18" d="M-.5,7H247.841" transform="translate(177.154 44.567)"/>
      <text id="Salle_06" data-name="Salle 06" class="cls-19" transform="translate(357.989 70.206)"><tspan x="0" y="0">Salle 06</tspan></text>
      <path id="Path_2-3" data-name="Path 2" class="cls-18" d="M-.5,2.5H247.841" transform="translate(177.154 75.871)"/>
      <text id="LABRINY_Claudia_maria" data-name="LABRINY Claudia maria" class="cls-20" transform="translate(176.654 94.918)"><tspan x="0" y="0">LABRINY Claudia maria</tspan></text>
      <text id="_16_04_2018-3" data-name="16/04/2018" class="cls-19" transform="translate(176.654 70.175)"><tspan x="0" y="0">16/04/2018</tspan></text>
      <text id="_14h00_-_16h00" data-name="14h00 - 16h00" class="cls-19" transform="translate(257.263 70.175)"><tspan x="0" y="0">14h00 - 16h00</tspan></text>
      <text id="_6" data-name="|" class="cls-19" transform="translate(247.547 69)"><tspan x="0" y="0">|</tspan></text>
      <text id="_7" data-name="|" class="cls-19" transform="translate(348.047 69)"><tspan x="0" y="0">|</tspan></text>
      <g id="Symbol_3_2" data-name="Symbol 3 – 2" transform="translate(204.172 -580)">
        <g id="Ellipse_2" data-name="Ellipse 2" class="cls-24" transform="translate(236 631)">
          <circle class="cls-35" cx="15" cy="15" r="15"/>
          <circle class="cls-5" cx="15" cy="15" r="14.5"/>
        </g>
        <g id="Group_8" data-name="Group 8" transform="translate(85 31)">
          <line id="Line_3" data-name="Line 3" class="cls-25" x2="13" y2="13" transform="translate(159.5 608.5)"/>
          <line id="Line_4" data-name="Line 4" class="cls-25" y1="13" x2="13" transform="translate(159.5 608.5)"/>
        </g>
      </g>
    </g>
    <g id="Group_26" data-name="Group 26" transform="translate(-126 210)">
      <g class="cls-40" transform="matrix(1, 0, 0, 1, 126, -210)">
        <g id="Path_3-8" data-name="Path 3" class="cls-16" transform="translate(20 226)">
          <path class="cls-35" d="M 302.1568603515625 99.25 L 32.84312438964844 99.25 C 28.50479125976562 99.25 24.29700088500977 98.45016479492188 20.33662414550781 96.87274932861328 C 16.51370811462402 95.35012054443359 13.08095836639404 93.17082977294922 10.13370800018311 90.39541625976562 C 7.189624786376953 87.62303924560547 4.878708362579346 84.39579010009766 3.265125036239624 80.80336761474609 C 1.596208333969116 77.08770751953125 0.75 73.1407470703125 0.75 69.07216644287109 L 0.75 30.92782974243164 C 0.75 26.85924530029297 1.596208333969116 22.91228866577148 3.265125036239624 19.19662094116211 C 4.878708362579346 15.60420417785645 7.189624786376953 12.37695407867432 10.13370800018311 9.604579925537109 C 13.08095836639404 6.829163074493408 16.51370811462402 4.649871349334717 20.33662414550781 3.127246141433716 C 24.29700088500977 1.549829483032227 28.50479125976562 0.7499961853027344 32.84312438964844 0.7499961853027344 L 302.1568603515625 0.7499961853027344 C 306.4952087402344 0.7499961853027344 310.7030029296875 1.549829483032227 314.6633605957031 3.127246141433716 C 318.4862365722656 4.649871349334717 321.9190063476562 6.829163074493408 324.8663024902344 9.604579925537109 C 327.8103637695312 12.37695407867432 330.1212768554688 15.60420417785645 331.73486328125 19.19662094116211 C 333.4037780761719 22.91228866577148 334.25 26.85924530029297 334.25 30.92782974243164 L 334.25 69.07216644287109 C 334.25 73.1407470703125 333.4037780761719 77.08770751953125 331.73486328125 80.80336761474609 C 330.1212768554688 84.39579010009766 327.8103637695312 87.62303924560547 324.8663024902344 90.39541625976562 C 321.9190063476562 93.17082977294922 318.4862365722656 95.35012054443359 314.6633605957031 96.87274932861328 C 310.7030029296875 98.45016479492188 306.4952087402344 99.25 302.1568603515625 99.25 Z"/>
          <path class="cls-36" d="M 302.1568603515625 98.5 C 306.3997192382812 98.5 310.5141296386719 97.71808624267578 314.3858032226562 96.17599487304688 C 318.1206970214844 94.68840789794922 321.4738159179688 92.55986022949219 324.3521423339844 89.84940338134766 C 327.2240600585938 87.14499664306641 329.477783203125 83.99808502197266 331.0507202148438 80.49608612060547 C 332.6759643554688 76.87767791748047 333.5 73.03413391113281 333.5 69.07218170166016 L 333.5 30.92781448364258 C 333.5 26.96586036682129 332.6759643554688 23.122314453125 331.0507202148438 19.50390434265137 C 329.477783203125 16.00190544128418 327.2240600585938 12.85499572753906 324.3521423339844 10.15058708190918 C 321.4738159179688 7.440132617950439 318.1206970214844 5.311586856842041 314.3858032226562 3.823996067047119 C 310.5141296386719 2.281905174255371 306.3997192382812 1.499996185302734 302.1568603515625 1.499996185302734 L 32.84313583374023 1.499996185302734 C 28.60027313232422 1.499996185302734 24.48581886291504 2.281905174255371 20.6141357421875 3.823996067047119 C 16.8792724609375 5.311586856842041 13.52613639831543 7.440132617950439 10.64786338806152 10.15058708190918 C 7.775954723358154 12.85499572753906 5.52222728729248 16.00190544128418 3.949272632598877 19.50390434265137 C 2.324045419692993 23.122314453125 1.5 26.96586036682129 1.5 30.92781448364258 L 1.5 69.07218170166016 C 1.5 73.03413391113281 2.324045419692993 76.87767791748047 3.949272632598877 80.49608612060547 C 5.52222728729248 83.99808502197266 7.775954723358154 87.14499664306641 10.64786338806152 89.84940338134766 C 13.52613639831543 92.55986022949219 16.8792724609375 94.68840789794922 20.6141357421875 96.17599487304688 C 24.48581886291504 97.71808624267578 28.60027313232422 98.5 32.84313583374023 98.5 L 302.1568603515625 98.5 M 302.1568603515625 100 L 32.84313583374023 100 C 14.70436382293701 100 0 86.15312957763672 0 69.07218170166016 L 0 30.92781448364258 C 0 13.8468599319458 14.70436382293701 -3.814697265625e-06 32.84313583374023 -3.814697265625e-06 L 302.1568603515625 -3.814697265625e-06 C 320.2955932617188 -3.814697265625e-06 335 13.8468599319458 335 30.92781448364258 L 335 69.07218170166016 C 335 86.15312957763672 320.2955932617188 100 302.1568603515625 100 Z"/>
        </g>
      </g>
      <text id="Programmation_orientée_objet" data-name="Programmation orientée objet" class="cls-17" transform="translate(175.658 43.371)"><tspan x="0" y="0">Programmation orientée objet</tspan></text>
      <path id="Path_1-4" data-name="Path 1" class="cls-18" d="M-.5,7H247.841" transform="translate(177.154 44.567)"/>
      <text id="Salle_labo_1" data-name="Salle labo 1" class="cls-19" transform="translate(357.989 70.206)"><tspan x="0" y="0">Salle labo 1</tspan></text>
      <path id="Path_2-4" data-name="Path 2" class="cls-18" d="M-.5,2.5H247.841" transform="translate(177.154 75.871)"/>
      <text id="HASSOUNI_Larbi" data-name="HASSOUNI Larbi" class="cls-20" transform="translate(176.654 94.918)"><tspan x="0" y="0">HASSOUNI Larbi</tspan></text>
      <text id="_16_04_2018-4" data-name="16/04/2018" class="cls-19" transform="translate(176.654 70.175)"><tspan x="0" y="0">16/04/2018</tspan></text>
      <text id="_10h30_-_12h30" data-name="10h30 - 12h30" class="cls-19" transform="translate(257.263 70.175)"><tspan x="0" y="0">10h30 - 12h30</tspan></text>
      <text id="_8" data-name="|" class="cls-19" transform="translate(247.547 69)"><tspan x="0" y="0">|</tspan></text>
      <text id="_9" data-name="|" class="cls-19" transform="translate(348.047 69)"><tspan x="0" y="0">|</tspan></text>
      <g id="Symbol_2_5" data-name="Symbol 2 – 5" transform="translate(236.078 -607)">
        <g id="Group_7-2" data-name="Group 7">
          <g id="Ellipse_1-2" data-name="Ellipse 1" class="cls-21" transform="translate(202 658)">
            <circle class="cls-35" cx="15" cy="15" r="15"/>
            <circle class="cls-5" cx="15" cy="15" r="14.25"/>
          </g>
        </g>
        <g id="check-2" data-name="check" transform="translate(-1.24 -2.895)">
          <line id="Line_1-2" data-name="Line 1" class="cls-22" x2="4.918" y2="7.423" transform="translate(211.5 675.014)"/>
          <line id="Line_2-2" data-name="Line 2" class="cls-22" y1="14.096" x2="8.795" transform="translate(216.418 667.5)"/>
        </g>
      </g>
    </g>
    <rect id="Rectangle_169" data-name="Rectangle 169" class="cls-7" width="281" height="770" transform="translate(0 42)"/>
    <g id="Group_27" data-name="Group 27" transform="translate(0 -361)">
      <g class="cls-39" transform="matrix(1, 0, 0, 1, 0, 361)">
        <g id="Rectangle_170-4" data-name="Rectangle 170" class="cls-26" transform="translate(8 360)">
          <rect class="cls-35" width="264.123" height="66" rx="33"/>
          <rect class="cls-5" x="2" y="2" width="260.123" height="62" rx="31"/>
        </g>
      </g>
      <text id="se_déconnecter" data-name="se déconnecter" class="cls-27" transform="translate(53 761)"><tspan x="0" y="0">se déconnecter</tspan></text>
    </g>
    <g id="Group_29" data-name="Group 29">
      <rect id="Rectangle_171" data-name="Rectangle 171" class="cls-4" width="281" height="129" transform="translate(0 44)"/>
      <text id="Amine_Benbada" data-name="Amine Benbada" class="cls-28" transform="translate(20 91)"><tspan x="0" y="0">Amine Benbada</tspan></text>
      <text id="Tronc_Commun_S6" data-name="Tronc Commun | S6" class="cls-29" transform="translate(20 137)"><tspan x="0" y="0">Tronc Commun | S6</tspan></text>
    </g>
    <g id="Group_28" data-name="Group 28" transform="translate(0 -454.25)">
      <g class="cls-38" transform="matrix(1, 0, 0, 1, 0, 454.25)">
        <g id="Rectangle_170-5" data-name="Rectangle 170" class="cls-30" transform="translate(8 266.75)">
          <rect class="cls-35" width="264.123" height="50" rx="25"/>
          <rect class="cls-5" x="1" y="1" width="262.123" height="48" rx="24"/>
        </g>
      </g>
      <text id="Absence" class="cls-31" transform="translate(75.879 752.667)"><tspan x="-52.906" y="0">Absence</tspan></text>
      <g id="Symbol_3_3" data-name="Symbol 3 – 3" transform="translate(-6.306 100)">
        <g id="Ellipse_2-2" data-name="Ellipse 2" class="cls-24" transform="translate(236 631)">
          <circle class="cls-35" cx="15" cy="15" r="15"/>
          <circle class="cls-5" cx="15" cy="15" r="14.5"/>
        </g>
        <g id="Group_8-2" data-name="Group 8" transform="translate(85 31)">
          <line id="Line_3-2" data-name="Line 3" class="cls-25" x2="13" y2="13" transform="translate(159.5 608.5)"/>
          <line id="Line_4-2" data-name="Line 4" class="cls-25" y1="13" x2="13" transform="translate(159.5 608.5)"/>
        </g>
      </g>
    </g>
    <rect id="Rectangle_172" data-name="Rectangle 172" class="cls-5" width="94" height="768" transform="translate(281 44)"/>
    <line id="Line_5" data-name="Line 5" class="cls-32" x2="281.5" transform="translate(-0.5 338.5)"/>
    <g id="Group_30" data-name="Group 30" transform="translate(22 -526.25)">
      <g class="cls-37" transform="matrix(1, 0, 0, 1, -22, 526.25)">
        <g id="Rectangle_170-6" data-name="Rectangle 170" class="cls-33" transform="translate(6.51 194.75)">
          <rect class="cls-35" width="265.615" height="50" rx="25"/>
          <rect class="cls-5" x="1" y="1" width="263.615" height="48" rx="24"/>
        </g>
      </g>
      <text id="Planing_de_la_journée" data-name="Planing de la journée" class="cls-34" transform="translate(117.551 751.667)"><tspan x="-118.256" y="0">Planing de la journée</tspan></text>
    </g>
  </g>
</svg>
